<?xml version="1.0" encoding="utf-8"?>
<!-- Generator: Adobe Illustrator 22.0.0, SVG Export Plug-In . SVG Version: 6.00 Build 0)  -->
<svg version="1.1" xmlns="http://www.w3.org/2000/svg" xmlns:xlink="http://www.w3.org/1999/xlink" x="0px" y="0px"
	 viewBox="0 0 600 600" style="enable-background:new 0 0 600 600;" xml:space="preserve">
<style type="text/css">
	.st0{display:none;}
	.st1{display:inline;fill:none;stroke:#000000;stroke-width:16;stroke-miterlimit:10;}
	.st2{display:inline;opacity:0.5;}
</style>
<g id="Icons" class="st0">
	<title>game</title>
	<line class="st1" x1="-314.5" y1="401" x2="-207.5" y2="401"/>
	<g class="st2">
		<path d="M525,73.5H75c-41.4,0-75,33.6-75,75v300c0,41.4,33.6,75,75,75h450c41.4,0,75-33.6,75-75v-300
			C600,107.1,566.4,73.5,525,73.5z M401.6,273.6l158.8-136c1.1,3.5,2.2,7,2.2,10.9v300c0,2.6-1,4.9-1.5,7.4L401.6,273.6z M525,111
			c2.5,0,4.7,1,7,1.4L300,311.3L68,112.4c2.3-0.5,4.5-1.4,7-1.4H525z M39,455.8c-0.5-2.5-1.5-4.7-1.5-7.3v-300
			c0-3.9,1.1-7.4,2.2-10.9l158.7,136L39,455.8z M75,486c-3.8,0-7.2-1.1-10.7-2.2L226.9,298l60.9,52.2c3.5,3,7.9,4.5,12.2,4.5
			s8.7-1.5,12.2-4.5l60.9-52.2l162.6,185.8c-3.4,1.1-6.9,2.2-10.7,2.2H75z"/>
	</g>
</g>
<g id="Layer_2">
	<path d="M570.1,81.8H29.9H0v436.4h600V81.8H570.1z M495,136.4l-195,156l-195-156H495z M54.5,463.6V165.8L300,362.2l245.5-196.4
		v297.8H54.5z"/>
</g>
</svg>
