<svg id="Icons" xmlns="http://www.w3.org/2000/svg" viewBox="0 0 600 600"><defs><style>.cls-1{fill:#232323;}</style></defs><title>app</title><path class="cls-1" d="M117.12,0V598H482.88V0Zm17.42,17.42H465.47V72.57H134.53Zm0,561.71V451.4H465.47V579.13ZM465.47,434H134.53V90H465.47Z"/><path class="cls-1" d="M300,470.27a45,45,0,1,0,45,45A45,45,0,0,0,300,470.27Zm0,72.57a27.58,27.58,0,1,1,27.58-27.58A27.61,27.61,0,0,1,300,542.84Z"/><circle class="cls-1" cx="228.88" cy="40.64" r="7.26"/><rect class="cls-1" x="256.46" y="33.38" width="87.09" height="14.51"/><path class="cls-1" d="M250.65,137.16H175.17v75.48h75.48Zm-17.42,58.06H192.59V154.58h40.64Z"/><path class="cls-1" d="M337.74,137.16H262.26v75.48h75.48Zm-17.42,58.06H279.68V154.58h40.64Z"/><path class="cls-1" d="M424.83,137.16H349.35v75.48h75.48Zm-17.42,58.06H366.77V154.58h40.64Z"/><path class="cls-1" d="M250.65,224.25H175.17v75.48h75.48Zm-17.42,58.06H192.59V241.67h40.64Z"/><path class="cls-1" d="M337.74,224.25H262.26v75.48h75.48Zm-17.42,58.06H279.68V241.67h40.64Z"/><path class="cls-1" d="M424.83,224.25H349.35v75.48h75.48Zm-17.42,58.06H366.77V241.67h40.64Z"/><path class="cls-1" d="M250.65,386.81V311.34H175.17v75.48Zm-58.06-58.06h40.64V369.4H192.59Z"/><path class="cls-1" d="M337.74,311.34H262.26v75.48h75.48ZM320.32,369.4H279.68V328.75h40.64Z"/><path class="cls-1" d="M424.83,311.34H349.35v75.48h75.48ZM407.41,369.4H366.77V328.75h40.64Z"/></svg>