<svg id="Icons" xmlns="http://www.w3.org/2000/svg" viewBox="0 0 600 600"><defs><style>.cls-1{fill:#232323;}</style></defs><title>art</title><path class="cls-1" d="M381.55,109.22H0V490.78H600V109.22Zm201,139.83A228.5,228.5,0,0,0,460.17,126.7H582.52ZM436.89,472.69A64.2,64.2,0,0,1,382.16,418h54.73Zm-54.73-72.2a64.2,64.2,0,0,1,54.73-54.73v54.73Zm-.61-41.62V345.15h13.72A82.23,82.23,0,0,0,381.55,358.87Zm72.82-13.72H582.24A137.09,137.09,0,0,1,454.37,473V345.15Zm-17.48-17.48H381.55V126.89c108.7,4.48,196.3,92.08,200.78,200.78ZM17.48,126.7h242a374.22,374.22,0,0,0-242,242Zm346.6,346.6H17.59c4.58-189,157.48-341.91,346.49-346.49V473.3Zm17.48-13.72a82.23,82.23,0,0,0,13.72,13.72H381.55ZM516.91,473.3a155.44,155.44,0,0,0,65.61-65.61V473.3Z"/></svg>