<svg id="Icons" xmlns="http://www.w3.org/2000/svg" viewBox="0 0 600 600"><defs><style>.cls-1{fill:#232323;}</style></defs><title>communication</title><path class="cls-1" d="M576.64,316l-66.49-26.11a150.5,150.5,0,0,1-72.78,18.74c-83,0-150.57-67.55-150.57-150.57S354.34,7.49,437.37,7.49,587.94,75,587.94,158.06a149.63,149.63,0,0,1-25.05,83.18ZM437.37,24.53c-73.63,0-133.53,59.9-133.53,133.53s59.9,133.53,133.53,133.53a133.38,133.38,0,0,0,67.76-18.46l3.58-2.11,45.62,17.91-9.48-51.55,2-2.92a132.69,132.69,0,0,0,24-76.39C570.89,84.43,511,24.53,437.37,24.53Z"/><polygon class="cls-1" points="229.97 592 166.78 528.81 14.06 528.81 14.06 197.83 271.17 197.83 271.17 214.88 31.11 214.88 31.11 511.76 173.84 511.76 212.93 550.85 212.93 511.76 399.01 511.76 399.01 327.1 416.06 327.1 416.06 528.81 229.97 528.81 229.97 592"/><path class="cls-1" d="M419.55,181.91v-5.52q0-10.22,5.21-16.46a79.68,79.68,0,0,1,15-13.19,70.39,70.39,0,0,0,11.86-9.81,15,15,0,0,0,3.89-10.43A12.9,12.9,0,0,0,450.63,116q-4.91-4-12.88-4-8.59,0-13.8,4.29a13.66,13.66,0,0,0-5.21,11v2.25q0,3.27-3.48,3.27L393.38,132a4.15,4.15,0,0,1-2.45-.72,2.07,2.07,0,0,1-1-1.74v-2.25A39.27,39.27,0,0,1,396,105.55a40.55,40.55,0,0,1,17.07-14.72q10.93-5.21,25.25-5.21,13.9,0,24.43,5a36.94,36.94,0,0,1,22,34.86,34,34,0,0,1-10.84,26,121,121,0,0,1-11.45,9,71.73,71.73,0,0,0-10.84,8.79,12.61,12.61,0,0,0-3.48,9v3.68q0,3.48-3.48,3.48H423Q419.55,185.39,419.55,181.91Zm3.27,44.47a15.5,15.5,0,0,1,.1-23.1,17.64,17.64,0,0,1,12.37-4.81,17.4,17.4,0,0,1,12.16,4.81,15.4,15.4,0,0,1,0,23.1,17.63,17.63,0,0,1-12.37,4.81A17.27,17.27,0,0,1,422.82,226.38Z"/><path class="cls-1" d="M74.31,338.55a32.66,32.66,0,0,1-13.14-12.71A37.13,37.13,0,0,1,56.48,307v-30.4A36.46,36.46,0,0,1,61.17,258a32.34,32.34,0,0,1,13.14-12.57A41.13,41.13,0,0,1,93.84,241a41.45,41.45,0,0,1,19.67,4.47A32.34,32.34,0,0,1,126.65,258a36.46,36.46,0,0,1,4.69,18.61V307a37.52,37.52,0,0,1-4.69,18.89,32.07,32.07,0,0,1-13.14,12.71,41.45,41.45,0,0,1-19.67,4.47A40.61,40.61,0,0,1,74.31,338.55Zm32.17-17.61q4.83-5,4.83-13.21V276.47q0-8.24-4.76-13.28t-12.71-5q-7.81,0-12.57,5t-4.76,13.28v31.25q0,8.24,4.76,13.21t12.57,5Q101.65,325.9,106.48,320.93Z"/><path class="cls-1" d="M145.4,339.12v-94.6a2.13,2.13,0,0,1,2.42-2.42H163a2.14,2.14,0,0,1,2.42,2.42v46.88q0,.57.36.64c.24,0,.45-.07.64-.36l18.89-21.73a4.22,4.22,0,0,1,3-1.42h17.19a3,3,0,0,1,1.56.36,1.18,1.18,0,0,1,.57,1.07,2.45,2.45,0,0,1-.57,1.56l-17.47,21.87a1,1,0,0,0-.14,1.14l20.88,44.18.28,1.14q0,1.7-2.13,1.7H192.42a2.92,2.92,0,0,1-2.84-1.85L175.8,307.15q-.42-.85-1.14-.14l-8.81,11.22a1.76,1.76,0,0,0-.43,1v19.89a2.13,2.13,0,0,1-2.42,2.42h-15.2A2.13,2.13,0,0,1,145.4,339.12Z"/><path class="cls-1" d="M223.25,338.48a11.78,11.78,0,0,1-3.69-8.74,11.25,11.25,0,0,1,4-8.59,12.94,12.94,0,0,1,8.95-3.62,13.3,13.3,0,0,1,9.23,3.62,11.26,11.26,0,0,1,4,8.59,11.58,11.58,0,0,1-3.84,8.74,13.14,13.14,0,0,1-9.37,3.62A12.65,12.65,0,0,1,223.25,338.48Z"/><path class="cls-1" d="M83.61,481V445.94l-.28-1.14L54.64,387a2.54,2.54,0,0,1-.43-1.28,1.35,1.35,0,0,1,.57-1.14,2.54,2.54,0,0,1,1.56-.43H72.82A2.92,2.92,0,0,1,75.66,386L93,422.92a.79.79,0,0,0,.64.43q.35,0,.5-.43L111.46,386a3.1,3.1,0,0,1,2.84-1.85h16.62q2.13,0,2.13,1.7a2,2,0,0,1-.28,1.14l-29,57.81-.28,1.14V481a2.13,2.13,0,0,1-2.42,2.42H86A2.13,2.13,0,0,1,83.61,481Z"/><path class="cls-1" d="M183.19,461.28a2.44,2.44,0,0,1,1.85-1,2.18,2.18,0,0,1,1.56.71l8.1,7.81a2.46,2.46,0,0,1,.85,1.7,2.65,2.65,0,0,1-.57,1.7,32.34,32.34,0,0,1-12,9.16,38.07,38.07,0,0,1-16,3.34q-13.07,0-21.66-6.68t-11.58-18.32a50,50,0,0,1-1.7-13.21,53.19,53.19,0,0,1,1.56-13.92,30.32,30.32,0,0,1,11.43-16.9,33.2,33.2,0,0,1,20.38-6.39q13.92,0,22.09,8.24t10.58,23.15q.57,4.69.85,10.37a2.13,2.13,0,0,1-2.42,2.42H152.93a.75.75,0,0,0-.85.85,20.52,20.52,0,0,0,1,4.4,11.59,11.59,0,0,0,5.61,6.75,20.52,20.52,0,0,0,10.16,2.34Q178.22,467.39,183.19,461.28Zm-25.64-32.46a11.1,11.1,0,0,0-4.19,6.18q-.71,2.7-.85,3.55t.71.85h24.15c.47,0,.71-.19.71-.57a10.37,10.37,0,0,0-.57-3.27,12.82,12.82,0,0,0-4.4-6.54,14.27,14.27,0,0,0-15.55-.21Z"/><path class="cls-1" d="M223.82,481.88a24.79,24.79,0,0,1-10.94-7.53A17.12,17.12,0,0,1,209,463.41v-.71a2.13,2.13,0,0,1,2.42-2.42h14.35q2.41,0,2.41.85v1q0,3.13,3.41,5.33a15.68,15.68,0,0,0,8.66,2.2,14.67,14.67,0,0,0,7.81-1.85,5.52,5.52,0,0,0,3-4.83,4.1,4.1,0,0,0-2.56-3.84,43.56,43.56,0,0,0-8.38-2.7,86.58,86.58,0,0,1-10.37-3.27q-9.24-3.12-14.63-7.67t-5.4-13.07A19.78,19.78,0,0,1,218,415.75q8.24-6.18,21.59-6.18a40.8,40.8,0,0,1,16,2.91,24.4,24.4,0,0,1,10.65,8.17A20,20,0,0,1,270,432.58a1.48,1.48,0,0,1-.64,1.21,2.82,2.82,0,0,1-1.78.5H253.65c-1.61,0-2.42-.28-2.42-.85v-.85a6.24,6.24,0,0,0-3.13-5.25,14.65,14.65,0,0,0-8.38-2.13,15.75,15.75,0,0,0-7.74,1.7,5.2,5.2,0,0,0-3.05,4.69,4.55,4.55,0,0,0,2.91,4.26,49.54,49.54,0,0,0,9.59,3,70.21,70.21,0,0,1,8,2.13q10.23,3,16.05,7.67t5.82,13.64a18.94,18.94,0,0,1-8.38,16.41q-8.38,5.9-22.44,5.9A46.71,46.71,0,0,1,223.82,481.88Z"/><path class="cls-1" d="M290.44,479.82a11.78,11.78,0,0,1-3.69-8.74,11.33,11.33,0,0,1,3.91-8.59,12.87,12.87,0,0,1,9-3.62,13.12,13.12,0,0,1,9.09,3.62,11.26,11.26,0,0,1,4,8.59,11.69,11.69,0,0,1-3.76,8.74,12.9,12.9,0,0,1-9.31,3.62A12.66,12.66,0,0,1,290.44,479.82Zm1.42-32.74-1.7-60.51q0-2.41,2.27-2.42h15.2q2.27,0,2.27,2.42L308,447.07q0,2.42-2.56,2.42H294.27A2.13,2.13,0,0,1,291.86,447.07Z"/></svg>