<svg id="Icons" xmlns="http://www.w3.org/2000/svg" viewBox="0 0 600 600"><defs><style>.cls-1{fill:#232323;}</style></defs><title>creative</title><path class="cls-1" d="M537.39,453.74,484.12,343.66H115.88L62.61,453.74h49.94V604h374.9V453.74Zm-28.47-17.85H350.23l-36-74.38H472.93Zm-417.83,0,36-74.38H285.76l-36,74.38H91.08ZM130.4,586.15V453.74H261l30.11-62.22V586.15Zm339.19,0H308.93V391.52L339,453.74H469.6Z"/><rect class="cls-1" x="291.07" width="17.85" height="34.1"/><rect class="cls-1" x="349.8" y="26.04" width="34.1" height="17.85" transform="translate(153.15 335.19) rotate(-60)"/><rect class="cls-1" x="398.74" y="74.97" width="34.1" height="17.85" transform="translate(13.75 219.13) rotate(-30)"/><rect class="cls-1" x="416.65" y="141.83" width="34.1" height="17.85"/><rect class="cls-1" x="406.86" y="200.55" width="17.85" height="34.1" transform="translate(19.45 468.89) rotate(-60)"/><rect class="cls-1" x="224.22" y="17.91" width="17.85" height="34.1" transform="translate(13.75 121.26) rotate(-30)"/><rect class="cls-1" x="175.28" y="66.85" width="17.85" height="34.1" transform="translate(19.45 201.48) rotate(-60)"/><rect class="cls-1" x="149.25" y="141.83" width="34.1" height="17.85"/><rect class="cls-1" x="167.16" y="208.68" width="34.1" height="17.85" transform="translate(-84.12 121.26) rotate(-30)"/><path class="cls-1" d="M209.43,149.75q.09,1.47.22,2.92c0,.45.08.91.13,1.36.14,1.27.29,2.54.48,3.8.07.48.16,1,.24,1.43.14.82.28,1.65.44,2.47.12.61.25,1.23.38,1.83s.31,1.38.48,2.07.29,1.22.45,1.82q.44,1.68,1,3.35c.18.6.38,1.19.58,1.78s.44,1.32.67,2,.42,1.17.64,1.75c.28.75.58,1.49.88,2.23.18.45.36.9.55,1.34q.74,1.74,1.56,3.45c.15.31.31.62.46.93q.7,1.43,1.46,2.84l.41.76a90.78,90.78,0,0,0,40.23,38.21l.07,0c1.18.57,2.37,1.12,3.58,1.64V238H246.44v47.61H263L300,331l37-45.37h16.59V238H335.7V227.74c1.21-.52,2.4-1.07,3.58-1.64l.07,0a90.78,90.78,0,0,0,40.23-38.21l.41-.76q.75-1.41,1.46-2.84c.15-.31.31-.61.46-.93q.81-1.71,1.56-3.45c.19-.44.36-.9.55-1.34.3-.74.6-1.48.88-2.23q.33-.87.64-1.75c.23-.66.45-1.32.67-2s.4-1.18.58-1.78q.51-1.66,1-3.35c.16-.6.3-1.21.45-1.82s.33-1.38.48-2.07.26-1.22.38-1.83c.16-.82.3-1.64.44-2.47.08-.48.17-.95.24-1.43.19-1.26.35-2.53.48-3.8,0-.45.09-.91.13-1.36q.13-1.46.22-2.92c0-.43.05-.86.07-1.3.06-1.38.11-2.76.11-4.15a90.75,90.75,0,0,0-181.5,0c0,1.39,0,2.77.11,4.15C209.38,148.89,209.4,149.32,209.43,149.75Zm72.72,83.53q4.39.88,8.93,1.33V238h-8.93Zm4.46-63.69v-6h26.78v6ZM300,302.75l-13.94-17.11h27.88Zm35.7-35H264.3v-11.9H335.7ZM317.85,238h-8.93v-3.42q4.53-.44,8.93-1.33ZM300,71.41a73,73,0,0,1,72.9,72.9c0,1.13,0,2.26-.09,3.38,0,.37,0,.75-.07,1.12q-.07,1.12-.17,2.23c0,.43-.08.87-.13,1.3-.08.7-.17,1.39-.27,2.09-.06.42-.11.84-.18,1.26q-.23,1.49-.53,3c-.1.52-.22,1-.34,1.55s-.24,1.06-.37,1.59-.28,1.1-.43,1.65-.27,1-.41,1.45-.32,1.09-.49,1.63-.36,1.08-.55,1.61q-.39,1.11-.8,2.21c-.25.65-.5,1.29-.76,1.93-.17.41-.35.81-.53,1.22-.27.62-.55,1.23-.83,1.84l-.5,1q-.56,1.15-1.16,2.27l-.28.52a73.36,73.36,0,0,1-35.31,32.15l-1.08.45-1.81.72-1.46.54a72.3,72.3,0,0,1-15.42,3.63V187.45h22.32V145.79H268.76v41.66h22.32v29.19A72.3,72.3,0,0,1,275.65,213l-1.46-.54-1.81-.72-1.08-.45A73.36,73.36,0,0,1,236,179.15l-.28-.52q-.6-1.12-1.16-2.27l-.5-1c-.29-.61-.56-1.22-.83-1.84-.18-.41-.36-.81-.53-1.22-.27-.64-.51-1.28-.76-1.93s-.55-1.47-.8-2.21c-.19-.54-.37-1.07-.55-1.61s-.33-1.08-.49-1.63-.28-1-.41-1.45-.29-1.1-.43-1.65-.25-1.06-.37-1.59-.24-1-.34-1.55q-.29-1.47-.53-3c-.07-.42-.12-.84-.18-1.26-.1-.69-.19-1.39-.27-2.09,0-.43-.09-.87-.13-1.3q-.1-1.11-.17-2.23c0-.37,0-.74-.07-1.12-.05-1.12-.09-2.24-.09-3.38A73,73,0,0,1,300,71.41Z"/></svg>