<svg id="Icons" xmlns="http://www.w3.org/2000/svg" viewBox="0 0 600 600"><defs><style>.cls-1{fill:#232323;}</style></defs><title>decision</title><path class="cls-1" d="M600,152.86,470.15,43.51v56.71H336.53V6.4H262.62v93.81H200.08V202.56h62.54v68.23H131.85V214.07L2,323.43,131.85,431.07V373.12H262.62V523.79H205.77V590.6H393.39V523.79H336.53V373.12h65.38V270.78H336.53V202.56H470.15V260.5ZM279.68,23.46h39.8v76.76h-39.8Zm96.65,517.39v32.69H222.82V540.85H376.33Zm-56.86-17.06h-39.8V373.12h39.8Zm65.38-236v68.23H114.8v38.71L28.6,323.32l86.2-72.59v37.1H384.86Zm-65.38-17.06h-39.8V202.56h39.8Zm17.06-85.28H217.14V117.27H487.2V80.17l86.2,72.59-86.2,71.45V185.5Z"/></svg>