<svg id="Icons" xmlns="http://www.w3.org/2000/svg" viewBox="0 0 600 600"><defs><style>.cls-1{fill:#232323;}</style></defs><title>detail</title><path class="cls-1" d="M540.83,121.8l42.5-42.5L535.61,63.39,519.7,15.67l-42.5,42.5A295.93,295.93,0,0,0,300,0C135.13,0,1,134.13,1,299S135.13,598,300,598,599,463.87,599,299A295.93,295.93,0,0,0,540.83,121.8Zm-19-44.64,29.25,9.75-39.23,39.23-29.25-9.75-9.75-29.25,39.23-39.23ZM300,580.58C144.73,580.58,18.42,454.26,18.42,299S144.73,17.42,300,17.42A278.64,278.64,0,0,1,464.74,70.63l-1,1L452.93,82.44l12.83,38.49L293.84,292.84l12.32,12.31L478.07,133.24l38.49,12.83,10.85-10.85,1-1A278.64,278.64,0,0,1,581.58,299C581.58,454.26,455.26,580.58,300,580.58Z"/><path class="cls-1" d="M146.15,299c0,84.84,69,153.85,153.85,153.85s153.85-69,153.85-153.85a153.1,153.1,0,0,0-33-95.16L408.4,216.25a135.73,135.73,0,0,1,28,82.75c0,75.23-61.2,136.44-136.44,136.44S163.56,374.23,163.56,299,224.77,162.56,300,162.56a135.73,135.73,0,0,1,82.74,28l12.41-12.41a153.1,153.1,0,0,0-95.16-33C215.16,145.15,146.15,214.16,146.15,299Z"/><path class="cls-1" d="M460,164.67A208.06,208.06,0,0,1,509,299c0,115.25-93.76,209-209,209S91,414.25,91,299,184.75,90,300,90a208.07,208.07,0,0,1,134.33,49l12.35-12.35A225.43,225.43,0,0,0,300,72.57C175.15,72.57,73.57,174.15,73.57,299S175.15,525.43,300,525.43,526.43,423.85,526.43,299a225.43,225.43,0,0,0-54.09-146.68Z"/></svg>