<svg id="Icons" xmlns="http://www.w3.org/2000/svg" viewBox="0 0 600 600"><defs><style>.cls-1{fill:#232323;}</style></defs><title>game</title><path class="cls-1" d="M556.56,480V436.1H454.12V392.2H344.37V228a118.54,118.54,0,1,0-90.73,0V392.2H143.88v43.9H41.44V480H-2.46V600H600.46V480Zm-120-70.24V436.1h-92.2V409.76ZM198,118.54a101,101,0,1,1,132.25,96c-.51.17-1,.35-1.53.51q-2.15.66-4.34,1.23c-.52.14-1,.25-1.57.37-1,.24-2,.48-3,.69-.63.13-1.27.25-1.9.37-.91.17-1.83.34-2.75.49l-1.94.29q-1.42.2-2.84.36l-1.87.2c-1,.1-2.1.17-3.16.24l-1.59.1c-1.59.07-3.18.12-4.79.12s-3.2,0-4.79-.12l-1.59-.1c-1.06-.07-2.11-.14-3.16-.24l-1.87-.2q-1.43-.16-2.84-.36l-1.94-.29c-.92-.15-1.84-.32-2.76-.49-.63-.12-1.27-.23-1.9-.37-1-.21-2-.45-3-.69-.52-.13-1.05-.24-1.57-.37q-2.19-.57-4.34-1.23c-.51-.16-1-.34-1.53-.51A101.14,101.14,0,0,1,198,118.54ZM271.2,233.77q1.79.43,3.6.81l1.21.23q2,.39,4,.71l1.41.23c1.51.22,3,.41,4.53.58l1.84.19c1.49.14,3,.26,4.48.34l1.8.08q2,.08,3.91.1l1,0,1,0q2,0,3.91-.1l1.8-.08c1.49-.08,3-.2,4.48-.34l1.84-.19c1.52-.17,3-.35,4.53-.58l1.41-.23q2-.32,4-.71l1.21-.23q1.81-.38,3.6-.81V436.1H271.2V233.77Zm-109.76,176h92.2V436.1h-92.2ZM59,453.66H539V480H59ZM582.9,582.44H15.1V497.56H582.9Z"/></svg>