<svg id="Icons" xmlns="http://www.w3.org/2000/svg" viewBox="0 0 600 600"><defs><style>.cls-1{fill:#232323;}</style></defs><title>problem</title><path class="cls-1" d="M330.77,333.52H290.44l.17-44.93h64.23V248.47h61v40.12h83.45V60.72H62.78V497.21h227l.25-64.19h40.71ZM480,80V269.33H435.07V229.22H335.58v40.12H290.65V226h32.09V126.51H290.65V80ZM82,80H271.39v65.79h32.09v61H271.39v62.58H228.06V237.24H128.57v32.09H82ZM311.51,413.76H270.87l-.25,64.19H82V288.59h65.79V256.5h61v32.09h62.55l-.25,64.19h40.4Z"/><path class="cls-1" d="M536.22,361.19l7.88-31.11-96.44-24.44-7.89,31.11-60.67-15.38L359,400.7l31.11,7.88-15,59.11L344,459.81l-20.9,82.44,220.89,56,56-220.89Zm-6.14,213.65L346.53,528.32,358,483.21l31.11,7.88,24.44-96.44-31.11-7.88,10.64-42,60.67,15.38L461.6,329l59.11,15-7.88,31.11,63.78,16.16Z"/></svg>