<svg id="Icons" xmlns="http://www.w3.org/2000/svg" viewBox="0 0 600 600"><defs><style>.cls-1{fill:#232323;}</style></defs><title>team</title><rect class="cls-1" x="330.08" y="83.89" width="11.52" height="11.52"/><rect class="cls-1" x="87.89" y="448.7" width="11.52" height="11.52" transform="translate(-293.92 199.33) rotate(-45)"/><path class="cls-1" d="M507,391.35h0l-30.54-30.54-5.09,5.09-7.65-7.65v-28.5l-70.32-70.32v-51l-20.15-20.15V177.46h7.2V1.83H219.24V177.46h7.2v10.82L192.61,222.1v52l-55.69,55.69v28.5l-7.65,7.65-5.09-5.09L0,485,114,599,238.19,474.81l-5.09-5.09,7.65-7.65h26v10.49H320V462.07h39.91l7.65,7.65-5.09,5.09L486.66,599l114-114ZM93.65,487,61.07,454.46l32.57-32.57,32.57,32.57Zm101.79,6.11-89.58-89.58,18.32-18.32,89.58,89.58ZM358.87,66.61v46.06H312.81V66.61Zm4.32,67.66v25.91H236.51V134.27ZM154.2,365.4V336.9l40.28-40.28,36.28,36.28V447.64l-9.87,9.87-79.4-79.4Zm148.54,89.88H284V298.38H266.74V433.27l-18.71.29V279.66H230.76v28.81L209.88,287.6V229.26l33.83-33.83v-18H356v18l20.15,20.15V390.51H356V298.38H338.72V440.89H320V298.38H302.73ZM356,444.8v-37h37.43V283.86l53,53v28.5l12.71,12.71-79.4,79.4L367.07,444.8Zm120.49-59.56,18.32,18.32-89.58,89.58-18.32-18.32ZM507,487l-32.57-32.57L507,421.88l32.57,32.57Z"/><rect class="cls-1" x="501.26" y="448.7" width="11.52" height="11.52" transform="translate(-172.85 491.62) rotate(-45)"/></svg>