<svg id="Icons" xmlns="http://www.w3.org/2000/svg" viewBox="0 0 600 600"><defs><style>.cls-1{fill:#232323;}</style></defs><title>ui</title><path class="cls-1" d="M0,34V444.63H245.9L234.61,500H151.46V564H450V500H365.39L354.1,444.63H600V34Zm432.52,483.5v29.13H168.93V517.45H432.52Zm-85-17.48h-95.1l11.29-55.34h72.52Zm235-72.82h-565v-69.9h565Zm-565-87.38V51.43h565V339.78Z"/><path class="cls-1" d="M323.3,368.9H276.7v46.6h46.6ZM305.83,398H294.17V386.38h11.65Z"/><rect class="cls-1" x="343.69" y="271.33" width="189.32" height="18.93"/><rect class="cls-1" x="387.38" y="234.92" width="145.63" height="18.93"/><rect class="cls-1" x="416.5" y="198.51" width="116.5" height="18.93"/><path class="cls-1" d="M247.57,163.56H188.73a67,67,0,1,0-75.14,57.66v76.32h134V276.73L300,302.94V158.16l-52.43,26.21ZM72.82,154.83a49.51,49.51,0,1,1,98.24,8.74H113.59v40A49.59,49.59,0,0,1,72.82,154.83ZM164.31,181a49.62,49.62,0,0,1-33.24,22.51V181Zm65.79,99h-99V221.23A67.16,67.16,0,0,0,184,181H230.1v12.08l-74.88,37.44L230.1,268Zm0-67.42v35.8l-35.8-17.9Zm52.43-26.21v88.23l-35-17.48V203.91Z"/><path class="cls-1" d="M320.39,92.2v61.17H541.75V92.2Zm203.88,43.69H337.86V109.68H524.27Z"/></svg>