<svg id="Icons" xmlns="http://www.w3.org/2000/svg" viewBox="0 0 600 600"><defs><style>.cls-1{fill:#232323;}</style></defs><title>ux</title><path class="cls-1" d="M0-1V599H600V-1ZM582.52,581.52h-565v-565h565Z"/><path class="cls-1" d="M512.62,71.82H87.38V380.55H512.62ZM285,226.18,104.85,354.84V97.53ZM123.38,89.29H476.62L300,215.45ZM300,236.92,476.62,363.08H123.38Zm15-10.74L495.15,97.53v257.3Z"/><path class="cls-1" d="M308.74,421.33H87.38v53.88H308.74Zm-17.48,36.41H104.85V438.81H291.26Z"/><path class="cls-1" d="M320.39,540.75H512.62V421.33H320.39Zm17.48-101.94H495.15v84.47H337.86Z"/><path class="cls-1" d="M308.74,486.86H87.38v53.88H308.74Zm-17.48,36.41H104.85V504.34H291.26Z"/></svg>