<svg id="Icons" xmlns="http://www.w3.org/2000/svg" viewBox="0 0 600 600"><defs><style>.cls-1{fill:#232323;}</style></defs><title>web</title><path class="cls-1" d="M43.54,496.4H554.46V188.69H43.54ZM434.45,341.87,537,221.25V461.42ZM529.16,479H317.84L423,355.3ZM423,328.49l-105-122.38h209.1Zm-11.42,13.43L307.71,464V220.92ZM61,206.11H290.29V479H61Z"/><rect class="cls-1" x="95.8" y="425.28" width="116.12" height="18.87"/><rect class="cls-1" x="95.8" y="381.73" width="58.06" height="18.87"/><rect class="cls-1" x="229.33" y="381.73" width="29.03" height="18.87"/><rect class="cls-1" x="174.17" y="381.73" width="18.87" height="18.87"/><rect class="cls-1" x="95.8" y="338.19" width="101.6" height="18.87"/><rect class="cls-1" x="131.64" y="258.36" width="87.98" height="18.87" transform="translate(-128.5 368.13) rotate(-75)"/><polygon class="cls-1" points="145.85 294.67 121.96 267.79 145.85 240.92 132.83 229.35 98.66 267.79 132.83 306.24 145.85 294.67"/><polygon class="cls-1" points="222.78 229.35 209.76 240.92 233.64 267.79 209.76 294.67 222.78 306.24 256.95 267.79 222.78 229.35"/><path class="cls-1" d="M510.91,50.8H0V547.2H598V50.8Zm69.67,17.42v69.67H510.91V68.22Zm-87.09,0v69.67H423.83V68.22Zm-87.09,0v69.67H336.74V68.22Zm-389,0h301.9v69.67H17.42ZM580.58,529.78H17.42V155.31H580.58Z"/><rect class="cls-1" x="349.8" y="94.34" width="43.54" height="17.42"/><path class="cls-1" d="M481.88,79.83H435.44v46.45h46.45Zm-17.42,29H452.85V97.25h11.61Z"/><polygon class="cls-1" points="537.39 123.73 545.75 115.37 554.1 123.73 566.42 111.41 558.06 103.05 566.42 94.7 554.1 82.38 545.75 90.74 537.39 82.38 525.08 94.7 533.43 103.05 525.08 111.41 537.39 123.73"/></svg>