<svg id="Layer_1" data-name="Layer 1" xmlns="http://www.w3.org/2000/svg" viewBox="0 0 85.23 84.13"><defs><style>.cls-1{fill:#fff;}</style></defs><title>loading</title><path class="cls-1" d="M15.26,10.15l4.83,6,3.59-2.89,1.1,1.36-5.2,4.19-5.93-7.36Z"/><path class="cls-1" d="M22.48,8.19a4.72,4.72,0,0,1,.19-1.82,4.18,4.18,0,0,1,.9-1.56,5.17,5.17,0,0,1,3.57-1.6,4.2,4.2,0,0,1,1.76.37,4.73,4.73,0,0,1,1.48,1.07,5.9,5.9,0,0,1,1.09,1.66A5.71,5.71,0,0,1,32,8.21a4.6,4.6,0,0,1-.2,1.79,4.2,4.2,0,0,1-.9,1.54,5.26,5.26,0,0,1-3.57,1.6,4.19,4.19,0,0,1-1.76-.35,4.6,4.6,0,0,1-1.47-1A5.71,5.71,0,0,1,23,10.11,5.89,5.89,0,0,1,22.48,8.19Zm3,2.07a3.12,3.12,0,0,0,.82.74,2.27,2.27,0,0,0,1,.33,2.75,2.75,0,0,0,2.17-1,2.27,2.27,0,0,0,.43-1,3.13,3.13,0,0,0,0-1.11,4.81,4.81,0,0,0-.35-1.11,5.18,5.18,0,0,0-.62-1,3.2,3.2,0,0,0-.83-.77,2.25,2.25,0,0,0-1-.34,2.75,2.75,0,0,0-2.17,1,2.24,2.24,0,0,0-.43,1,3.18,3.18,0,0,0,0,1.13,5.16,5.16,0,0,0,.37,1.16A4.8,4.8,0,0,0,25.49,10.26Z"/><path class="cls-1" d="M37.55.46,42.41,9.3l-2.13.31-1-2-3.5.51-.43,2.19-2.07.3L35.45.77Zm1,5.72L36.83,2.92h0l-.72,3.61Z"/><path class="cls-1" d="M47.86.49A4.89,4.89,0,0,1,49.52,1a3.7,3.7,0,0,1,1.25,1,4,4,0,0,1,.72,1.55,5.89,5.89,0,0,1,.08,2.08,6.55,6.55,0,0,1-.49,1.86,4.19,4.19,0,0,1-1,1.4,3.74,3.74,0,0,1-1.45.83,4.51,4.51,0,0,1-1.91.14l-4-.49L43.82,0ZM46.8,8.12a2.66,2.66,0,0,0,.88,0,1.93,1.93,0,0,0,.81-.39,2.43,2.43,0,0,0,.63-.81,3.89,3.89,0,0,0,.36-1.29,5.46,5.46,0,0,0,0-1.3,2.55,2.55,0,0,0-.33-1,2,2,0,0,0-.76-.72,3.33,3.33,0,0,0-1.25-.37L45.67,2,45,7.9Z"/><path class="cls-1" d="M56.83,2.59l-2.93,9-2-.64,2.93-9Z"/><path class="cls-1" d="M61.71,4.63l.34,7.46h0l3.1-5.53,1.7,1-4.62,8.24-1.81-1-.34-7.44h0L57,12.82l-1.7-1,4.62-8.24Z"/><path class="cls-1" d="M67.27,20.46a3.47,3.47,0,0,1-1.16-.77A4.83,4.83,0,0,1,65,18a4.16,4.16,0,0,1-.29-1.77,4.59,4.59,0,0,1,.46-1.74,5.7,5.7,0,0,1,1.15-1.58,5.89,5.89,0,0,1,1.62-1.16,4.72,4.72,0,0,1,1.77-.46,4.18,4.18,0,0,1,1.78.3,4.76,4.76,0,0,1,1.64,1.12A4.58,4.58,0,0,1,74,13.9a4,4,0,0,1,.41,1.33,3.46,3.46,0,0,1-.82,2.69L72.17,16.5a2,2,0,0,0,.34-1.34A2.08,2.08,0,0,0,71.89,14a2.43,2.43,0,0,0-1-.66,2.25,2.25,0,0,0-1.08-.05,3.18,3.18,0,0,0-1.05.41,5.16,5.16,0,0,0-1,.75,4.83,4.83,0,0,0-.73.91,3.12,3.12,0,0,0-.41,1,2.27,2.27,0,0,0,0,1.07,2.43,2.43,0,0,0,.64,1,2,2,0,0,0,3,.17L68.9,17.15,70,16.06l2.79,2.82-3.63,3.59-.93-.94.61-.9A3.11,3.11,0,0,1,67.27,20.46Z"/><path class="cls-1" d="M77.18,27.94l-1.45.71L74,25.08l1.45-.71Z"/><path class="cls-1" d="M84.44,34.79,76.84,36l.75,4.54-1.72.29-1.09-6.59,9.32-1.54Z"/><path class="cls-1" d="M82.59,42a4.72,4.72,0,0,1,1.49,1.05A4.18,4.18,0,0,1,85,44.64a5.18,5.18,0,0,1-.36,3.89,4.19,4.19,0,0,1-1.19,1.35,4.73,4.73,0,0,1-1.66.77,5.93,5.93,0,0,1-2,.14,5.68,5.68,0,0,1-1.89-.49,4.6,4.6,0,0,1-1.47-1,4.2,4.2,0,0,1-.9-1.54,5.26,5.26,0,0,1,.36-3.89,4.17,4.17,0,0,1,1.17-1.36,4.6,4.6,0,0,1,1.63-.77,5.72,5.72,0,0,1,1.95-.14A5.9,5.9,0,0,1,82.59,42Zm-3.28,1.61a3.13,3.13,0,0,0-1,.35,2.27,2.27,0,0,0-.79.73,2.74,2.74,0,0,0-.22,2.37,2.27,2.27,0,0,0,.65.86,3.1,3.1,0,0,0,1,.53,4.72,4.72,0,0,0,1.14.24,5.1,5.1,0,0,0,1.21,0,3.2,3.2,0,0,0,1.07-.35,2.24,2.24,0,0,0,.8-.72,2.75,2.75,0,0,0,.22-2.37,2.25,2.25,0,0,0-.65-.86,3.21,3.21,0,0,0-1-.54,5.2,5.2,0,0,0-1.19-.25A4.8,4.8,0,0,0,79.31,43.64Z"/><path class="cls-1" d="M82,58.95l-10.08-.09.77-2,2.22.09,1.27-3.3-1.7-1.45.75-2L82.72,57Zm-5.45-2,3.66.13v0l-2.8-2.39Z"/><path class="cls-1" d="M76.87,67.93a4.87,4.87,0,0,1-1.24,1.2,3.69,3.69,0,0,1-1.51.58,4,4,0,0,1-1.71-.14,5.9,5.9,0,0,1-1.84-1,6.59,6.59,0,0,1-1.38-1.34,4.19,4.19,0,0,1-.74-1.54,3.76,3.76,0,0,1,0-1.67,4.53,4.53,0,0,1,.82-1.73l2.41-3.28,7.61,5.6Zm-6.12-4.68a2.67,2.67,0,0,0-.4.79,1.92,1.92,0,0,0-.06.89,2.43,2.43,0,0,0,.4.95,3.86,3.86,0,0,0,.95.94,5.51,5.51,0,0,0,1.12.65,2.58,2.58,0,0,0,1.06.22,2,2,0,0,0,1-.31,3.33,3.33,0,0,0,.94-.91l.88-1.19-4.8-3.53Z"/><path class="cls-1" d="M70.66,74.7l-6.4-7,1.53-1.41,6.39,7Z"/><path class="cls-1" d="M66.48,78,59.8,74.63h0L63.09,80l-1.66,1L56.5,73l1.77-1.09,6.65,3.34h0l-3.3-5.39,1.66-1,4.94,8.05Z"/><path class="cls-1" d="M50,75.06a3.49,3.49,0,0,1,1.24-.63,4.84,4.84,0,0,1,2-.15,4.19,4.19,0,0,1,1.68.62,4.6,4.6,0,0,1,1.29,1.26A5.69,5.69,0,0,1,57,77.92a5.9,5.9,0,0,1,.21,2,4.73,4.73,0,0,1-.46,1.77,4.18,4.18,0,0,1-1.13,1.41,4.77,4.77,0,0,1-1.78.89,4.59,4.59,0,0,1-1.42.16,4,4,0,0,1-1.36-.29,3.47,3.47,0,0,1-1.95-2L51,81.27a2,2,0,0,0,1,1,2.07,2.07,0,0,0,1.34,0,2.41,2.41,0,0,0,1.08-.58,2.24,2.24,0,0,0,.57-.91,3.17,3.17,0,0,0,.15-1.12,5.15,5.15,0,0,0-.18-1.2,4.82,4.82,0,0,0-.44-1.08,3.13,3.13,0,0,0-.69-.86,2.27,2.27,0,0,0-1-.49,2.42,2.42,0,0,0-1.22.05,2,2,0,0,0-1.63,2.56l2-.55.41,1.49-3.83,1L47.3,75.73l1.28-.35.49,1A3.11,3.11,0,0,1,50,75.06Z"/><path class="cls-1" d="M38.58,80l.09-1.61,4,.22-.09,1.61Z"/><path class="cls-1" d="M29,83l2.62-7.24L27.34,74.2l.59-1.64,6.28,2.27L31,83.72Z"/><path class="cls-1" d="M23.64,77.86a4.73,4.73,0,0,1-1.65.78,4.18,4.18,0,0,1-1.8,0A5.17,5.17,0,0,1,17,76.46a4.18,4.18,0,0,1-.6-1.7,4.73,4.73,0,0,1,.15-1.82,5.89,5.89,0,0,1,.86-1.8,5.68,5.68,0,0,1,1.36-1.4A4.6,4.6,0,0,1,20.37,69a4.19,4.19,0,0,1,1.79,0,5.26,5.26,0,0,1,3.22,2.22A4.18,4.18,0,0,1,26,72.86a4.6,4.6,0,0,1-.13,1.8A5.71,5.71,0,0,1,25,76.42,5.92,5.92,0,0,1,23.64,77.86Zm.21-3.65a3.13,3.13,0,0,0,.21-1.09,2.27,2.27,0,0,0-.24-1,2.75,2.75,0,0,0-2-1.35,2.28,2.28,0,0,0-1.06.14,3.11,3.11,0,0,0-.94.58,4.79,4.79,0,0,0-.77.87,5.12,5.12,0,0,0-.57,1.07,3.19,3.19,0,0,0-.23,1.11,2.26,2.26,0,0,0,.24,1.05,2.75,2.75,0,0,0,2,1.35,2.25,2.25,0,0,0,1.07-.15,3.2,3.2,0,0,0,1-.6,5.17,5.17,0,0,0,.8-.91A4.82,4.82,0,0,0,23.85,74.21Z"/><path class="cls-1" d="M9.21,69l5-8.75,1.38,1.66-1.16,1.89,2.26,2.72,2.09-.77,1.34,1.61-9.55,3.29Zm4.38-3.79-1.91,3.13,0,0,3.45-1.27Z"/><path class="cls-1" d="M3.87,60.18a4.87,4.87,0,0,1-.44-1.67,3.69,3.69,0,0,1,.23-1.6,4,4,0,0,1,1-1.42,5.89,5.89,0,0,1,1.73-1.14,6.5,6.5,0,0,1,1.84-.55,4.2,4.2,0,0,1,1.7.1,3.76,3.76,0,0,1,1.46.8,4.51,4.51,0,0,1,1.11,1.57L14.16,60l-8.6,3.9Zm7.07-3.05a2.67,2.67,0,0,0-.49-.74,1.92,1.92,0,0,0-.75-.49,2.44,2.44,0,0,0-1-.12,3.88,3.88,0,0,0-1.29.37,5.52,5.52,0,0,0-1.12.66,2.59,2.59,0,0,0-.71.82,2,2,0,0,0-.23,1,3.36,3.36,0,0,0,.33,1.27l.61,1.35,5.42-2.46Z"/><path class="cls-1" d="M1,51.41l9.2-2.15.47,2-9.2,2.15Z"/><path class="cls-1" d="M.22,46.19,6.4,42v0l-6.33.23L0,40.28l9.44-.34L9.52,42,3.34,46.17v0L9.66,46l.07,1.94-9.44.34Z"/><path class="cls-1" d="M10.83,33.22a3.48,3.48,0,0,1-.05,1.39,4.85,4.85,0,0,1-.84,1.8,4.18,4.18,0,0,1-1.36,1.17,4.61,4.61,0,0,1-1.73.51,5.71,5.71,0,0,1-1.94-.16,5.9,5.9,0,0,1-1.83-.78,4.72,4.72,0,0,1-1.31-1.27,4.18,4.18,0,0,1-.67-1.67,4.77,4.77,0,0,1,.1-2,4.58,4.58,0,0,1,.55-1.31,4,4,0,0,1,.92-1,3.47,3.47,0,0,1,2.73-.71l-.48,1.93a2,2,0,0,0-1.33.41,2.08,2.08,0,0,0-.69,1.15,2.43,2.43,0,0,0,0,1.22,2.25,2.25,0,0,0,.51.95,3.19,3.19,0,0,0,.9.68,5.17,5.17,0,0,0,1.13.43,4.8,4.8,0,0,0,1.16.14,3.11,3.11,0,0,0,1.09-.19,2.27,2.27,0,0,0,.89-.6,2.42,2.42,0,0,0,.55-1.09A2.25,2.25,0,0,0,9,32.51a2.27,2.27,0,0,0-1.31-1l-.51,2-1.5-.37,1-3.85,5,1.23-.32,1.28-1.09-.05A3.1,3.1,0,0,1,10.83,33.22Z"/><path class="cls-1" d="M12.08,20.88l1.36.87L11.3,25.1l-1.36-.87Z"/></svg>