<svg xmlns="http://www.w3.org/2000/svg" viewBox="0 0 622.09 1003"><defs><style>.cls-1{fill:#232323;}.cls-2,.cls-3{fill:#003cf0;}.cls-2{opacity:0.25;}.cls-4{fill:#fff0dc;}.cls-5{fill:none;stroke:#000;stroke-linecap:round;stroke-linejoin:round;stroke-width:7px;}</style></defs><title>Artboard 1</title><g id="Layer_11_copy" data-name="Layer 11 copy"><path class="cls-1" d="M337.59,435.5s-4,2-18-5-66-61-66-61l3-26,11-34s-1-5-6-5-8,5-8,5l-10,18s-36-60-43-58,8,37,8,37l-2,5s-22-22-29-16,20,26,18,32-27-9-30,0,17,16,17,16l-3,6s-14,6-8,13,16,3,16,3v-6s12,3,15,8,11,14,29,17c0,0,20,30,20,51s22,55,40,63,82,12,82,12l-4-82Z"/><path class="cls-1" d="M439.59,340.5s10-18,12-28c0,0-28,10-57-4s-49.36-43.71-63.18-97.36-7.82-64.64-7.82-64.64l123-25,41,49s53,18,61,20,20,40,20,40-8.08,25.34-19.54,29.17-25.46,11.83-25.46,11.83l-15,15s16,25,23,29,5,23,5,23l-70,31Z"/><path class="cls-1" d="M421.59,347.5l-5-20s-9,3-9,11-31-14-38-15-8,2-8,2l12,13-25,9s20,0,25,5l9,9-16,2-13,12,1,2,14-5,10-1-12,10-3,6,21.5-3.5,5.5.5s10.66,13.34,21.83,16.17a140.37,140.37,0,0,1,20.17,6.83s21,27,30,56S483.46,511,505,521.24s37.57,11.26,40.57,6.26,15-27,15-27l22-33-21-52-25-3L524,443.39S482.3,407.5,470.94,402,421.59,347.5,421.59,347.5Z"/><polygon class="cls-2" points="282.09 333 282.09 345 302.09 353 326.09 349 328.09 336 324.09 335 326.09 292 322.09 276 312.09 269 298.09 274 289.09 292 287.09 331 282.09 333"/></g><g id="Layer_10" data-name="Layer 10"><path class="cls-3" d="M223.93,842.92S223.09,890,205.09,918s-19,57-9,64a51.49,51.49,0,0,0,47,6c20-7,34-28,42-51s24.32-71.5,34.66-88.25Z"/><path class="cls-3" d="M68.09,873s1,34-7,44-46,20-50,43,22,36,22,36a103.12,103.12,0,0,0,40-12c20-11,37-29,57-32s23-15,20-31,9-65,9-65Z"/><path class="cls-3" d="M334.09,445l12-9s17,18,20,35,2,36,2,36,46,11,57,23c0,0,82,22,102,49s16,57,16,57,30,4,38-23-13-47-13-47-22-27-23-39c0,0-15,10-31,0s-31-18-51-63-32-59-40-60-20-8-20-8l-13-12h-11l-6,12s-22,22-37,24S334.09,445,334.09,445Z"/><path class="cls-3" d="M574.09,484s20,9,24,0,7-32,7-32l-3-23s1-22,5-35,13-47,2-54-14-20-30-22-47-2-47-2-39,42-63,42-20-35-20-35-24,4-29,13l3,14s37,41,38,43,65,52,65,52l10-30s21,17,26,30,21,24,21,24Z"/><path d="M229.09,683s-5-100,0-116a64.34,64.34,0,0,1,16-26s-97-27-134-17l-63,65-10,27s-7,36-12,44c0,0-5,11,23,95,0,0,1,47-2,63s-6,36-6,36,26,34,72,28,73-44,76-56c0,0-22-39-19-58s25-51,30-85l4-4Z"/><path d="M230.09,566V751s-20,22-21,54,39,68,62,69,83-50,84-60,7-40,0-53c0,0,27-51,33-63,0,0,23,18,68,10s83-22,87-72-31-74-43-79-77-27-77-27-21-13.34-32-16.67-81-29.33-103-16.33S236.09,544,230.09,566Z"/><path d="M333.09,254l8-4s-17-56-15-89l22-9s35-3,38-9,21-13,21-13,36,3,43,0c0,0,21,16,24,56,0,0,16,3,25-10,0,0,4,33-2,47,0,0,9-1,11-7,0,0,10,6,11,14,0,0,7-6,10-19,0,0,14-16,23-7s13,22,9,30-9,26-30,27c0,0-4,7-2,10s7,5,7,5,8-15,16-18l26,10s-2-21,0-40-4-47-4-47,11,13,16,15-4-65-27-85l24,8s-17-20-23-31-19-19-19-19,17-3,18,0c0,0-9-13-28-15,0,0,0-30-28-38,0,0,4,7,1,13,0,0-40-22-51-22l3,13s-26-8-42-9l4,10s-29-3-33-7c0,0-2,16-8,20,0,0-14,5-26,4,0,0-15,25-41,35l15,8s-22,20-42,24v6l12,6s-24,12-36,11c0,0,20,28,39,31l3,4-7,7s13,7,17,12,0,52,0,52l12-8Z"/><path class="cls-4" d="M145.09,932s-34,5-45,18-24,21-48,29c-11.41,3.8-23.71,5.12-33.49,5.45A52.46,52.46,0,0,0,33.09,996a103.12,103.12,0,0,0,40-12c20-11,37-29,57-32,15.56-2.34,20.83-10.12,21-21Z"/><path class="cls-4" d="M282.64,943.5c-17.34,18-45.75,42.3-66.55,34.5-31.85-12-16.5-50.34-16.35-50.7-12.73,24.85-12.55,48.47-3.65,54.7a51.49,51.49,0,0,0,47,6C261.18,981.66,274.37,963.87,282.64,943.5Z"/></g><g id="Rest"><path class="cls-5" d="M284.59,494.5c-18-7-34-53-36-68s-17-43-17-43c-9,1-21-4-28-15s-19-9-19-9,6,2,2,6-8,2-14-3,0-11,7-13,13-8,8-6-25-6-22-16,29,8,30,1-26-28-18-34,28,20,31,18-4-14-8-21-6-19,0-22,39,60,43,59,4-8,6-14,9-14,16-10-11,37-10,47a77.86,77.86,0,0,1,0,17c14,22,64,63,72,70s14,38,14,38"/><line class="cls-5" x1="332.86" y1="446.73" x2="345.09" y2="436"/><path class="cls-5" d="M230.09,743s3-1-10,20-17,53,0,74,34,36,52,36,74-39,82-60,0-53,0-53,39-59,39-93,1-68-20-96"/><path class="cls-5" d="M422.09,530s95,19,112,60,12,91-37,108-81.73,16-110.87,0"/><path class="cls-5" d="M476.09,589s-44-66-83-75-89-34-113-12-51,52-52,69,2.23,171.66,2.23,171.66S229.09,777,235.09,798"/><path class="cls-5" d="M242.92,541.63S165.09,519,110.09,525c0,0-56,53-64,68s-12,56-20,67,26,80,25,118-11,69-9,78,45,36,85,25,60-48,62-55-30-39-12-78,30-75,26-93-20-63-20-79"/><path class="cls-5" d="M229.09,681s-14.77,4.07-26.89-3"/><path class="cls-5" d="M542.83,636.56s34.26.44,36.26-18.56-21-48-48-53-55-18.66-55-18.66"/><path class="cls-5" d="M577.64,623s11.45-14,5.45-32-31.5-45.5-37.5-63.5"/><path class="cls-5" d="M340.59,437.5s-6-9-1-9c4.47,0,18.5,20.5,24.5,35.5s10,47.29-2,41.14"/><path class="cls-5" d="M329.28,440.36S325.09,424,331.09,421s30-6,51-37"/><path class="cls-5" d="M373.83,508.75S378.09,494,386.09,485s10-26,10-38,5-33,12-43"/><path class="cls-5" d="M546.09,504c0-18-6-39-11-48s-36-35-51-44-40-36-50-50-13-13-31-22-38-21-41-17c0,0-5,6,12,14s19,12,19,12-10-6-19-7-25,0-25,5,14,2,21,4,18,10,18,10-18,0-22,2-15,10-14,16,8-5,16-7a37.16,37.16,0,0,1,16,0s-12.13,3.66-14,6c-4,5-9,10-7,12s12-4,15-5,12-3,15,1,16,15,22,16,17,5,17,5,24,37,32,58,17,41,29,49,24,14,35,16,20-3,23-12c0,0,6-16,12-21s20-29,20-29"/><path class="cls-5" d="M525.93,445.42S529.09,428,537.09,415"/><path class="cls-5" d="M421.74,349.22S418.09,335,417.09,329c-.52-3.12-13-.13-9,13.44"/><path class="cls-5" d="M528.51,433.23S516.09,422,520.09,416s21.86-5.06,34,17c22,40,51,43,43,50-10.86,9.49-21.77,0-21.77,0"/><path class="cls-5" d="M527.26,438.3S507.09,423,512.09,412s18-15,24-29,2-22,5-31"/><path class="cls-5" d="M598.16,480.55A63,63,0,0,0,602.09,436c-7-25,21-69,7-94s-30-26-47-27a266.41,266.41,0,0,0-31,0s-28,39-57,43-25-36-25-36-21.94,4.09-30,16.54"/><path class="cls-5" d="M509.09,287s6,15,22,28"/><path class="cls-5" d="M451.09,313s1,3-2,9"/><path class="cls-5" d="M325.59,159.32s3.7,69.24,22.84,101.13C368,293.07,399,327.32,451.18,312.64s73.4-35.88,78.3-52.19c0,0,32.62,0,32.62-34.25s-29.36-26.1-32.62-14.68"/><path class="cls-5" d="M549.05,222.93s-8.15-8.15-13,1.64,4.9,16.31,4.9,16.31"/><path class="cls-5" d="M394.1,268.61a13.46,13.46,0,0,0,9.49,3.89"/><path class="cls-5" d="M417.09,295s9-8,32-6"/><path class="cls-5" d="M373.52,207.78s-8.43-4.78-21.43-.78"/><path class="cls-5" d="M414.3,202.89s12.79-9.89,27.1-6"/><path class="cls-5" d="M423.46,232.72s24.46,13.05,35.88-6.52"/><path class="cls-5" d="M355,237.61s13.05,9.79,21.2,0"/><path class="cls-5" d="M343.07,249.7l-11,5.86s-3.26-21.21-6.52-29.36c0,0-6.52,9.78-11.42,11.41,0,0,4.9-37.51,0-55.45l-17.94-11.42s4.89-3.26,9.79-11.42"/><path class="cls-5" d="M529.09,212s-4.51,19.09-9.4,25.61c0,0,0-17.94-11.42-22.83,0,0-6.52,11.42-13,11.42,0,0,13-42.41,3.27-50.57,0,0-11.42,13.05-24.47,13.05,0,0-3.26-47.3-24.47-58.72,0,0-45.67,6.53-73.4-8.15"/><path class="cls-5" d="M348.43,152.8s-48.94,27.73-89.72-24.47c0,0,31-1.63,42.41-14.68,0,0-13.05-1.63-19.57-6.52,0,0,42.41-16.31,53.83-29.36,0,0-21.21,0-27.73-3.27,0,0,36-12,47.44-36.5,0,0,19.43.62,26-2.64,0,0,8.15-16.31,6.52-22.84,0,0,19.57,9.79,34.25,8.16,0,0-1.63-9.79-14.68-11.42,0,0,40.78,0,60.36,16.31A35.26,35.26,0,0,1,454.45,6s40.77,8.15,52.19,26.1c0,0,3.26-11.42-3.26-18,0,0,29.36,3.27,31,39.15,0,0,24.47,3.26,31,17.94,0,0-14.68-4.89-21.2-1.63a38,38,0,0,1,21.2,21.21c6.53,16.31,22.84,29.35,22.84,29.35s-18-3.26-26.1-9.78c0,0,19.57,24.46,22.83,42.41s6.53,45.67,6.53,45.67-13.05-8.16-19.57-21.21c0,0,13,37.52,6.52,57.09S580,268.61,580,268.61s-17.94-4.9-22.83-11.42c0,0-21.21,9.78-19.58,19.57,0,0-7.79,1.43-10.42-10.7"/><path class="cls-5" d="M407.5,130.44S369.63,161,314.17,147.9"/><path class="cls-5" d="M171.66,338.79s7.43,4.21,10.43-1.79-5.22-11.53-5.22-11.53"/><path class="cls-5" d="M180.89,307.23s9.2,6.77,12.2,3.77S193,301,188.55,297"/><path class="cls-5" d="M224,841.68S223.09,880,216.09,896s-33,50-11,75,72-10,87-55,27.66-67.25,27.66-67.25"/><path class="cls-5" d="M69.09,876s-1,33-7,41-45,19-50,43,3,25,23,23,51-15,67-32,45.27-10.54,47-27c2-19,8-58,8-58"/><path class="cls-5" d="M201.09,926l-9,22.54a33.63,33.63,0,0,0,4.3,33.13,19.69,19.69,0,0,0,7.72,6.33c12,5,39,8,58-12s28.63-56.2,28.63-56.2"/><path class="cls-5" d="M245.7,862.86S242.09,890,236.09,906s-15,24-5,30,20,2,31-21,20.27-44.41,20.27-44.41"/><path class="cls-5" d="M26.58,939.49S31.14,951,44.14,945s30-15,38-24,12.34-36.41,12.34-36.41"/><path class="cls-5" d="M229,921.46s17-.84,22.56,10.35"/><path class="cls-5" d="M235.11,908.48s18-4.47,26,8.53"/><path class="cls-5" d="M239.9,893.37s19.66-4,28.92,7.31"/><path class="cls-5" d="M243.17,878.28S264,876,275.52,886"/><path class="cls-5" d="M67.83,896.37S77.69,894,89.41,906"/><path class="cls-5" d="M80.77,922.44s-2.83-12-15.23-13.71"/><path class="cls-5" d="M65.54,933.79s.3-10.19-8.05-13"/><path class="cls-5" d="M46.84,943.73s0-11.24-5.36-14"/><path class="cls-5" d="M11.14,976s7,15,22,19,49-13,56-19,25-21.67,37-23c10.4-1.16,16.79-5.65,20.34-9.23a12.55,12.55,0,0,0,3.61-9L149.86,918"/><path class="cls-5" d="M173.7,788.73S163.09,769,174.09,714"/><path class="cls-5" d="M357.14,755.22S348.09,771,338.09,781"/><path class="cls-5" d="M44.51,737.46S65.09,815,65.09,834"/></g><g id="Layer_9" data-name="Layer 9"><path class="cls-3" d="M330.15,332.3l-2.9-2.42,3.67-34.28a3.64,3.64,0,0,0-.09-1.23l-4.43-17.49a3.39,3.39,0,0,0-.67-1.34l-5.56-6.9a3.65,3.65,0,0,0-1.37-1l-6-2.53a3.52,3.52,0,0,0-2-.22l-6.43,1.2a3.6,3.6,0,0,0-1.56.72l-6.89,5.56a3.43,3.43,0,0,0-.94,1.17l-8,16.16a3.28,3.28,0,0,0-.35,1.18l-3.67,34.28-3.35,1.75a3.52,3.52,0,0,0-1.86,2.73l-1.53,14.33A3.5,3.5,0,0,0,278,347.4l8.95,4.74a2.64,2.64,0,0,0,.38.18l.21.08L275.07,469.62a3.49,3.49,0,0,0,3.11,3.85,2.3,2.3,0,0,0,.37,0,3.5,3.5,0,0,0,3.48-3.13L294.31,355l2.1.81a3.32,3.32,0,0,0,.88.21l9.35,1,.37,0a3.29,3.29,0,0,0,.54-.05l1.59-.24L301,433.64a3.5,3.5,0,0,0,3.11,3.85l.37,0a3.51,3.51,0,0,0,3.48-3.13l8.36-78.73.86-.14a2.71,2.71,0,0,0,.41-.09l9.75-2.74a3.48,3.48,0,0,0,2.53-3l1.54-14.33A3.49,3.49,0,0,0,330.15,332.3Zm-29.27-55,5.61-4.53,4.53-.84,4.25,1.78,4.53,5.62,4.09,16.14L320.09,331h0l-.37,3.45-4.1,1.53-5.55.51-11.78-1.26L293,333.56l-3.68-2.36,4.17-39Zm15,71.32L306.93,350l-8.44-.91L290,345.86l-6.67-3.53.66-6.19,5.56,3.56a3.6,3.6,0,0,0,.84.4l6.1,1.91a3.8,3.8,0,0,0,.67.14l12.47,1.33a2.23,2.23,0,0,0,.37,0h.32l6.36-.58a3.64,3.64,0,0,0,.91-.21l6.18-2.3-.67,6.19Z"/></g></svg>